<?xml version="1.0" standalone="no"?>
<!DOCTYPE svg PUBLIC "-//W3C//DTD SVG 20010904//EN"
 "http://www.w3.org/TR/2001/REC-SVG-20010904/DTD/svg10.dtd">
<svg version="1.0" xmlns="http://www.w3.org/2000/svg"
 width="620.000000pt" height="620.000000pt" viewBox="0 0 620.000000 620.000000"
 preserveAspectRatio="xMidYMid meet">
<metadata>
Created by potrace 1.11, written by Peter Selinger 2001-2013
</metadata>
<g transform="translate(0.000000,620.000000) scale(0.100000,-0.100000)"
fill="#000000" stroke="none">
<path d="M754 6090 c-297 -40 -533 -243 -626 -540 l-23 -75 0 -2375 c0 -2268
1 -2378 18 -2440 72 -255 264 -453 517 -532 l75 -23 2385 0 2385 0 75 23 c253
79 445 277 517 532 17 62 18 172 18 2440 l0 2375 -23 75 c-83 265 -279 455
-545 527 -58 16 -228 18 -2387 19 -1279 1 -2353 -2 -2386 -6z m2584 -590 c243
-51 437 -156 613 -330 142 -141 237 -292 299 -478 58 -174 60 -201 60 -928 l0
-664 -397 -1 c-280 -1 -379 -4 -335 -10 47 -7 73 -18 106 -43 100 -76 343 -75
443 1 39 30 53 35 107 36 l61 2 3 -1202 2 -1203 -666 0 c-629 0 -671 1 -765
20 -511 104 -879 478 -974 990 -14 75 -15 278 -9 1957 l7 1873 676 0 c634 0
682 -2 769 -20z"/>
<path d="M2700 3906 c0 -442 -3 -806 -7 -808 -5 -1 -6 -295 -3 -653 5 -613 6
-653 24 -695 41 -95 110 -172 196 -215 74 -38 129 -45 356 -45 l221 0 7 1428
c4 785 5 1445 1 1467 -21 116 -119 240 -232 293 -57 27 -60 27 -310 30 l-253
3 0 -805z"/>
<path d="M1968 3088 c46 -6 75 -17 100 -37 48 -37 90 -51 182 -58 112 -8 211
11 265 52 31 24 61 37 102 43 41 7 -53 10 -327 10 -271 0 -366 -3 -322 -10z"/>
</g>
</svg>
